# xmcd CD database file
#
# Track frame offsets:
#	150
#	15531
#	38919
#	54037
#	70539
#	85437
#	103341
#	120850
#	135186
#	153517
#	167947
#	187560
#	211480
#	231350
#	245086
#	257709
#	269999
#	289270
#
# Disc length: 3984 seconds
#
# Revision: 0
# Processed by: cddbd v1.5PL3 Copyright (c) Steve Scherf et al.
# Submitted via: CDex 1.50beta9
#
DISCID=fb0f8e12
DTITLE=George Winston - All of the Seasons
DYEAR=1998
DGENRE=New Age
TTITLE0=Colors/Dance
TTITLE1=Venice Dreamer, Pt. 2
TTITLE2=Living in the Country
TTITLE3=Cradle [Live][#]
TTITLE4=Joy
TTITLE5=Treat Street
TTITLE6=Variations on the Kanon by Pachelbel
TTITLE7=Thanksgiving
TTITLE8=Miles City Train
TTITLE9=Corrina, Corrina
TTITLE10=Hummingbird
TTITLE11=Longing/Love
TTITLE12=Cast Your Fate to the Wind
TTITLE13=Sandman [#]
TTITLE14=Snowman's Music Box Dance
TTITLE15=Northern Plains [#]
TTITLE16=Sleep, Baby Mine [#]
TTITLE17=Evening Song (Live)
EXTD=YEAR: 1998
EXTT0=
EXTT1=
EXTT2=
EXTT3=
EXTT4=
EXTT5=
EXTT6=
EXTT7=
EXTT8=
EXTT9=
EXTT10=
EXTT11=
EXTT12=
EXTT13=
EXTT14=
EXTT15=
EXTT16=
EXTT17=
PLAYORDER=
